<svg fill="#000000" xmlns="http://www.w3.org/2000/svg"  viewBox="0 0 48 48" width="48px" height="48px"><path d="M 9.5 8 C 6.468 8 4 10.468 4 13.5 L 4 34.5 C 4 37.532 6.468 40 9.5 40 L 22.996094 40 C 22.600094 39.052 22.314344 38.046 22.152344 37 L 9.5 37 C 8.121 37 7 35.879 7 34.5 L 7 13.5 C 7 12.121 8.121 11 9.5 11 L 38.5 11 C 39.879 11 41 12.121 41 13.5 L 41 23.464844 C 42.102 24.038844 43.111 24.766141 44 25.619141 L 44 13.5 C 44 10.468 41.532 8 38.5 8 L 9.5 8 z M 12.5 17 A 1.50015 1.50015 0 1 0 12.5 20 L 27.5 20 A 1.50015 1.50015 0 1 0 27.5 17 L 12.5 17 z M 33.5 17 A 1.50015 1.50015 0 1 0 33.5 20 L 35.5 20 A 1.50015 1.50015 0 1 0 35.5 17 L 33.5 17 z M 12.5 23 C 11.672 23 11 23.672 11 24.5 C 11 25.328 11.672 26 12.5 26 L 25.619141 26 C 26.522141 25.06 27.563891 24.255141 28.712891 23.619141 C 28.440891 23.244141 27.999 23 27.5 23 L 12.5 23 z M 35 24 C 28.925 24 24 28.925 24 35 C 24 41.075 28.925 46 35 46 C 41.075 46 46 41.075 46 35 C 46 28.925 41.075 24 35 24 z M 35 27 C 35.553 27 36 27.448 36 28 L 36 29.015625 C 37.544 29.093625 38.528844 29.975031 38.839844 30.457031 C 39.139844 30.921031 39.006969 31.540844 38.542969 31.839844 C 38.077969 32.136844 37.458156 32.006969 37.160156 31.542969 C 37.157156 31.542969 36.726109 31 35.787109 31 L 34.25 31 C 33.423 31 32.75 31.673 32.75 32.5 C 32.75 33.327 33.423 34 34.25 34 L 36 34 C 37.93 34 39.5 35.57 39.5 37.5 C 39.5 39.43 37.93 41 36 41 L 36 42 C 36 42.552 35.553 43 35 43 C 34.447 43 34 42.552 34 42 L 34 40.996094 C 32.756 40.987094 31.617969 40.532031 30.792969 39.707031 C 30.401969 39.316031 30.401969 38.685922 30.792969 38.294922 C 31.183969 37.903922 31.816031 37.903922 32.207031 38.294922 C 32.529031 38.615922 33.108109 39 34.037109 39 L 36 39 C 36.827 39 37.5 38.327 37.5 37.5 C 37.5 36.673 36.827 36 36 36 L 34.25 36 C 32.32 36 30.75 34.43 30.75 32.5 C 30.75 30.656 32.189 29.156391 34 29.025391 L 34 28 C 34 27.448 34.447 27 35 27 z"/></svg>