<svg fill="#000000" xmlns="http://www.w3.org/2000/svg"  viewBox="0 0 50 50" width="50px" height="50px"><path d="M 46 20 C 46.554688 20 47 19.550781 47 19 L 47 15 C 47 14.449219 46.554688 14 46 14 L 36 14 L 36 4 C 36 3.449219 35.554688 3 35 3 L 31 3 C 30.445313 3 30 3.449219 30 4 L 30 14 L 20 14 L 20 4 C 20 3.449219 19.550781 3 19 3 L 15 3 C 14.449219 3 14 3.449219 14 4 L 14 14 L 4 14 C 3.449219 14 3 14.449219 3 15 L 3 19 C 3 19.550781 3.449219 20 4 20 L 14 20 L 14 30 L 4 30 C 3.449219 30 3 30.445313 3 31 L 3 35 C 3 35.554688 3.449219 36 4 36 L 14 36 L 14 46 C 14 46.554688 14.449219 47 15 47 L 19 47 C 19.550781 47 20 46.554688 20 46 L 20 36 L 30 36 L 30 46 C 30 46.554688 30.445313 47 31 47 L 35 47 C 35.554688 47 36 46.554688 36 46 L 36 36 L 46 36 C 46.554688 36 47 35.554688 47 35 L 47 31 C 47 30.445313 46.554688 30 46 30 L 36 30 L 36 20 Z M 30 30 L 20 30 L 20 20 L 30 20 Z"/></svg>