<?xml version="1.0"?><svg fill="#000000" xmlns="http://www.w3.org/2000/svg"  viewBox="0 0 30 30" width="60px" height="60px">    <path d="M 15 2 A 2 2 0 0 0 13 4 A 2 2 0 0 0 15 6 A 2 2 0 0 0 17 4 A 2 2 0 0 0 15 2 z M 5 8 A 2 2 0 0 0 3 10 A 2 2 0 0 0 5 12 A 2 2 0 0 0 7 10 A 2 2 0 0 0 5 8 z M 25 8 A 2 2 0 0 0 23 10 A 2 2 0 0 0 25 12 A 2 2 0 0 0 27 10 A 2 2 0 0 0 25 8 z M 15 9 C 12.941 9 12.087891 10.356234 12.087891 11.990234 C 12.087891 12.540234 12.34375 13.09375 12.34375 13.09375 C 12.24075 13.15475 12.070281 13.346453 12.113281 13.689453 C 12.193281 14.328453 12.462766 14.491859 12.634766 14.505859 C 12.700766 15.101859 13.405047 15.947594 13.623047 16.058594 L 13.623047 17.013672 C 13.139047 18.508672 10 18.176 10 21 L 20 21 C 20 18.176 16.86 18.508672 16.375 17.013672 L 16.375 16.058594 C 16.593 15.947594 17.298281 15.101859 17.363281 14.505859 C 17.535281 14.492859 17.805766 14.329453 17.884766 13.689453 C 17.927766 13.346453 17.757297 13.15475 17.654297 13.09375 C 17.654297 13.09375 17.910156 12.593234 17.910156 11.990234 C 17.910156 10.780234 17.448078 9.7480469 16.455078 9.7480469 C 16.456078 9.7470469 16.111 9 15 9 z M 5 18 A 2 2 0 0 0 3 20 A 2 2 0 0 0 5 22 A 2 2 0 0 0 7 20 A 2 2 0 0 0 5 18 z M 25 18 A 2 2 0 0 0 23 20 A 2 2 0 0 0 25 22 A 2 2 0 0 0 27 20 A 2 2 0 0 0 25 18 z M 15 24 A 2 2 0 0 0 13 26 A 2 2 0 0 0 15 28 A 2 2 0 0 0 17 26 A 2 2 0 0 0 15 24 z"/></svg>