<svg fill="#000000" xmlns="http://www.w3.org/2000/svg"  viewBox="0 0 24 24" width="50px" height="50px"><path d="M 6 2 C 4.897 2 4 2.897 4 4 L 4 20 C 4 21.103 4.897 22 6 22 L 10.501953 22 C 10.240953 21.377 10.079391 20.703 10.025391 20 L 6 20 L 6 4 L 18 4 L 18 11.353516 C 18.618 11.130516 19.276031 11.006953 19.957031 11.001953 L 19.957031 3.7167969 C 19.980031 3.3877969 19.863141 3.0518594 19.619141 2.7558594 C 19.317141 2.3908594 18.733 2 18 2 L 6 2 z M 11.962891 5.6503906 L 11.962891 7.078125 C 11.623891 7.121125 9.7265625 7.4775781 9.7265625 9.7675781 C 9.7265625 12.895578 12.756531 12.229938 13.144531 13.960938 C 13.662531 13.646937 14.229125 13.414906 14.828125 13.253906 C 14.151125 11.257906 11.616234 11.481344 11.615234 9.7773438 C 11.615234 8.6503437 12.235141 8.6152344 12.369141 8.6152344 C 12.614141 8.6152344 13.197266 8.830125 13.197266 10.203125 L 15.087891 10.203125 C 15.087891 7.576125 13.291703 7.1664688 12.970703 7.1054688 L 12.970703 5.6503906 L 11.962891 5.6503906 z M 20 13 C 18.527063 13 17.234653 13.80695 16.541016 15.003906 C 16.52703 15.003776 16.514014 15 16.5 15 C 14.026563 15 12 17.026563 12 19.5 C 12 21.973437 14.026563 24 16.5 24 C 18.473506 24 20.143947 22.701711 20.746094 20.923828 C 22.590297 20.570424 24 18.94205 24 17 C 24 14.802666 22.197334 13 20 13 z M 9.4121094 13.855469 C 9.4121094 15.422469 10.065844 16.197703 10.714844 16.595703 C 10.970844 16.088703 11.276391 15.612359 11.650391 15.193359 C 11.459391 14.966359 11.302734 14.574469 11.302734 13.855469 L 9.4121094 13.855469 z M 20 15 C 21.116666 15 22 15.883334 22 17 C 22 17.778944 21.564801 18.436339 20.925781 18.767578 C 20.695228 17.383162 19.828471 16.221374 18.636719 15.568359 C 18.993793 15.227238 19.460746 15 20 15 z M 16.5 17 C 17.892557 17 19 18.107443 19 19.5 C 19 20.892557 17.892557 22 16.5 22 C 15.107443 22 14 20.892557 14 19.5 C 14 18.107443 15.107443 17 16.5 17 z"/></svg>