<svg fill="#000000" xmlns="http://www.w3.org/2000/svg"  viewBox="0 0 48 48" width="48px" height="48px"><path d="M 20.486328 4.9785156 A 1.50015 1.50015 0 0 0 19.439453 5.4394531 L 16.5 8.3789062 L 13.560547 5.4394531 A 1.50015 1.50015 0 0 0 12.484375 4.984375 A 1.50015 1.50015 0 0 0 11.439453 7.5605469 L 15.439453 11.560547 A 1.50015 1.50015 0 0 0 17.560547 11.560547 L 21.560547 7.5605469 A 1.50015 1.50015 0 0 0 20.486328 4.9785156 z M 31.478516 5 A 1.50015 1.50015 0 0 0 30.439453 5.4394531 L 26.439453 9.4394531 A 1.50015 1.50015 0 1 0 28.560547 11.560547 L 31.5 8.6210938 L 34.439453 11.560547 A 1.50015 1.50015 0 1 0 36.560547 9.4394531 L 32.560547 5.4394531 A 1.50015 1.50015 0 0 0 31.478516 5 z M 8.5 14 C 7.1364058 14 6 15.136406 6 16.5 L 6 17.589844 C 6 19.886494 7.0554772 22.058837 8.859375 23.480469 L 19 31.470703 L 19 41.5 A 1.50015 1.50015 0 0 0 21.371094 42.720703 L 28.371094 37.720703 A 1.50015 1.50015 0 0 0 29 36.5 L 29 31.46875 L 39.140625 23.480469 C 40.944523 22.058837 42 19.886494 42 17.589844 L 42 16.5 C 42 15.136406 40.863594 14 39.5 14 L 8.5 14 z M 9 17 L 39 17 L 39 17.589844 C 39 18.969193 38.369258 20.268678 37.285156 21.123047 L 27.287109 29 L 20.712891 29 L 10.714844 21.123047 C 9.6307412 20.268678 9 18.969193 9 17.589844 L 9 17 z M 22 32 L 26 32 L 26 35.728516 L 22 38.585938 L 22 32 z"/></svg>