<svg fill="#000000" xmlns="http://www.w3.org/2000/svg"  viewBox="0 0 512 512" width="64px" height="64px"><path d="M 133.5 28.5 A 122 122 0 0 0 11.5 150.5 C 11.5 217.8787 66.283409 325.5 133.66211 325.5 C 201.04081 325.5 255.5 217.8787 255.5 150.5 A 122 122 0 0 0 133.5 28.5 z M 133.69531 71.328125 C 154.00938 71.328125 171.45082 78.657006 186.02148 93.316406 C 200.59215 107.97581 207.87824 125.84516 207.87891 146.92383 C 207.87891 164.93303 202.45296 180.64831 191.60156 194.07031 A 5.0063 5.0063 0 0 0 191.45703 200.30078 L 197.99805 208.75781 A 12.7614 12.7614 0 0 1 177.82812 224.39648 L 171.5293 216.29102 A 4.9218 4.9218 0 0 0 165.55273 214.8125 A 72.3155 72.3155 0 0 1 134.0332 221.64062 C 112.53627 221.64062 94.677145 214.23076 80.455078 199.41016 C 66.233011 184.58956 59.12136 166.93141 59.121094 146.43555 A 74.3116 74.3116 0 0 1 96.359375 81.445312 A 72.9553 72.9553 0 0 1 133.69531 71.328125 z M 133.69531 97.984375 C 120.31918 97.984375 109.11762 102.59058 100.09375 111.80078 C 91.069883 121.01098 86.557641 132.71748 86.556641 146.92188 C 86.556641 162.74787 92.241395 175.26643 103.61133 184.47656 A 46.8865 46.8865 0 0 0 133.91992 195.27539 A 45.887 45.887 0 0 0 145.23047 193.89648 A 5.0075 5.0075 0 0 0 147.9707 185.97656 L 142.61914 179.0918 A 12.7614 12.7614 0 0 1 152.69531 158.5 L 152.85156 158.5 A 12.7613 12.7613 0 0 1 162.94531 163.45312 L 167.41016 169.22461 A 4.9956 4.9956 0 0 0 175.86133 168.33984 A 49.7509 49.7509 0 0 0 180.63672 146.72461 C 180.63672 133.17008 176.05976 121.65663 166.9043 112.1875 A 44.4981 44.4981 0 0 0 133.69531 97.984375 z M 378.5 177.5 A 122 122 0 0 0 256.5 299.5 C 256.5 366.8787 311.28341 474.5 378.66211 474.5 C 446.04081 474.5 500.5 366.8787 500.5 299.5 A 122 122 0 0 0 378.5 177.5 z M 378.50195 227.76953 A 20.1228 20.1228 0 0 1 378.55664 227.76953 A 20.123 20.123 0 0 1 397.33984 240.66992 L 440.52539 352.95508 A 13.1934 13.1934 0 0 1 428.21094 370.88477 A 13.1932 13.1932 0 0 1 415.87695 362.37695 L 409.9082 346.66211 A 8.1491 8.1491 0 0 0 402.29102 341.40625 L 355.05859 341.40625 A 8.1494 8.1494 0 0 0 347.47852 346.56055 L 341.16797 362.53711 A 13.1933 13.1933 0 0 1 328.89844 370.88477 L 328.78906 370.88477 A 13.1933 13.1933 0 0 1 316.47852 352.94531 L 359.78125 240.65234 A 20.1228 20.1228 0 0 1 378.50195 227.76953 z M 378.72461 272.71484 A 3.9911 3.9911 0 0 0 375.00586 275.25391 L 361.66016 309.40234 A 3.9911 3.9911 0 0 0 365.37695 314.8457 L 391.98828 314.8457 A 3.9911 3.9911 0 0 0 395.70898 309.4082 L 382.44336 275.26172 A 3.9911 3.9911 0 0 0 378.72461 272.71484 z M 47.662109 329.5 A 6 6 0 0 0 47.662109 341.5 L 137.98828 341.5 C 172.73828 341.5 201.00977 372.0049 201.00977 409.5 C 201.00977 453.6123 234.66114 489.5 276.02734 489.5 L 450.66211 489.5 A 6 6 0 0 0 450.66211 477.5 L 276.0293 477.5 C 241.2803 477.5 213.00977 446.9951 213.00977 409.5 C 213.00977 365.3877 179.35643 329.5 137.99023 329.5 L 47.662109 329.5 z"/></svg>