<svg fill="#000000" xmlns="http://www.w3.org/2000/svg"  viewBox="0 0 48 48" width="48px" height="48px"><path d="M 12.5 4 C 10.019 4 8 6.019 8 8.5 L 8 39.5 C 8 41.981 10.019 44 12.5 44 L 25.632812 44 C 24.777812 43.111 24.050609 42.103 23.474609 41 L 12.5 41 C 11.673 41 11 40.327 11 39.5 L 11 8.5 C 11 7.673 11.673 7 12.5 7 L 24 7 L 24 15.5 C 24 17.981 26.019 20 28.5 20 L 37 20 L 37 22.169922 C 38.045 22.331922 39.053 22.603047 40 22.998047 L 40 18.498047 C 40 18.084047 39.832047 17.710953 39.560547 17.439453 L 26.560547 4.4394531 C 26.289047 4.1680781 25.914 4 25.5 4 L 12.5 4 z M 27 9.1210938 L 34.876953 16.998047 L 28.5 16.998047 C 27.673 16.998047 27 16.325047 27 15.498047 L 27 9.1210938 z M 35 24 C 28.925 24 24 28.925 24 35 C 24 41.075 28.925 46 35 46 C 41.075 46 46 41.075 46 35 C 46 28.925 41.075 24 35 24 z M 17.5 25 C 16.672 25 16 25.672 16 26.5 C 16 27.328 16.672 28 17.5 28 L 24.056641 28 C 24.780641 26.87 25.667312 25.855 26.695312 25 L 17.5 25 z M 35 27 C 35.552 27 36 27.448 36 28 L 36 34 L 42 34 C 42.552 34 43 34.448 43 35 C 43 35.552 42.552 36 42 36 L 36 36 L 36 42 C 36 42.552 35.552 43 35 43 C 34.448 43 34 42.552 34 42 L 34 36 L 28 36 C 27.448 36 27 35.552 27 35 C 27 34.448 27.448 34 28 34 L 34 34 L 34 28 C 34 27.448 34.448 27 35 27 z M 17.5 32 C 16.672 32 16 32.672 16 33.5 C 16 34.328 16.672 35 17.5 35 L 22 35 C 22 33.966 22.133328 32.965 22.361328 32 L 17.5 32 z"/></svg>