<svg fill="#000000" xmlns="http://www.w3.org/2000/svg"  viewBox="0 0 64 64" width="64px" height="64px"><path d="M 18 4 A 15 15 0 1 0 33 19 A 15.017 15.017 0 0 0 18 4 z M 17.458984 6.0117188 A 13 13 0 0 1 31 19 A 13.015 13.015 0 0 1 18 32 A 13 13 0 0 1 17.458984 6.0117188 z M 18 8 A 11 11 0 1 0 29 19 A 11.013 11.013 0 0 0 18 8 z M 17 12 L 19 12 L 19 14 L 20 14 A 3 3 0 0 1 23 17 L 21 17 A 1 1 0 0 0 20 16 L 16 16 A 1 1 0 0 0 16 18 L 20 18 A 3 3 0 0 1 20 24 L 19 24 L 19 26 L 17 26 L 17 24 L 16 24 A 3 3 0 0 1 13 21 L 15 21 A 1 1 0 0 0 16 22 L 20 22 A 1 1 0 0 0 20 20 L 16 20 A 3 3 0 0 1 16 14 L 17 14 L 17 12 z M 53 13 L 53 16 L 37 16 L 37 22 L 53 22 L 53 25 L 61 19 L 53 13 z M 9 18 L 11 18 L 11 20 L 9 20 L 9 18 z M 25 18 L 27 18 L 27 20 L 25 20 L 25 18 z M 45 30 A 15 15 0 1 0 60 45 A 15.017 15.017 0 0 0 45 30 z M 44.458984 32.011719 A 13 13 0 0 1 58 45 A 13.015 13.015 0 0 1 45 58 A 13 13 0 0 1 44.458984 32.011719 z M 45 34 A 11 11 0 1 0 56 45 A 11.013 11.013 0 0 0 45 34 z M 44 38 L 46 38 L 46 40 L 47 40 A 3 3 0 0 1 50 43 L 48 43 A 1 1 0 0 0 47 42 L 43 42 A 1 1 0 0 0 43 44 L 47 44 A 3 3 0 0 1 47 50 L 46 50 L 46 52 L 44 52 L 44 50 L 43 50 A 3 3 0 0 1 40 47 L 42 47 A 1 1 0 0 0 43 48 L 47 48 A 1 1 0 0 0 47 46 L 43 46 A 3 3 0 0 1 43 40 L 44 40 L 44 38 z M 11 39 L 3 45 L 11 51 L 11 48 L 26 48 L 26 42 L 11 42 L 11 39 z M 52 44 L 54 44 L 54 46 L 52 46 L 52 44 z"/></svg>