<?xml version="1.0" encoding="UTF-8"?>
<svg xmlns="http://www.w3.org/2000/svg" xmlns:xlink="http://www.w3.org/1999/xlink" viewBox="0 0 50 50" width="50px" height="50px">
<g id="surface42895092">
<path style=" stroke:none;fill-rule:nonzero;fill:rgb(0%,44.313726%,87.450981%);fill-opacity:1;" d="M 25 2 C 19.734375 2 14.882812 3.78125 11 6.769531 L 11 6 C 11 4.34375 9.65625 3 8 3 C 6.34375 3 5 4.34375 5 6 L 5 13.664062 C 3.09375 17.011719 2 20.878906 2 25 C 2 37.683594 12.316406 48 25 48 C 37.683594 48 48 37.683594 48 25 C 48 12.316406 37.683594 2 25 2 Z M 4.210938 27.988281 L 4.070312 27 L 6.050781 26.71875 L 6.328125 28.691406 L 4.351562 28.980469 C 4.210938 27.988281 4.351562 28.980469 4.210938 27.988281 Z M 5.21875 32.058594 L 4.878906 31.121094 L 6.761719 30.4375 L 7.429688 32.328125 L 5.550781 33 C 5.21875 32.058594 5.550781 33 5.21875 32.058594 Z M 7.53125 36.699219 C 7.011719 35.847656 7.53125 36.699219 7.011719 35.847656 L 6.5 34.988281 L 8.210938 33.949219 L 9.238281 35.671875 Z M 10.199219 39.9375 C 9.53125 39.199219 10.199219 39.9375 9.53125 39.199219 L 8.851562 38.460938 L 10.320312 37.109375 L 11.679688 38.578125 Z M 13.460938 42.578125 C 12.648438 41.988281 13.460938 42.578125 12.648438 41.988281 L 11.851562 41.398438 L 13.019531 39.78125 L 14.640625 40.960938 Z M 17.191406 44.519531 C 16.269531 44.109375 17.191406 44.519531 16.269531 44.109375 C 16.269531 44.109375 16.269531 44.109375 16.269531 44.101562 L 15.359375 43.691406 L 16.199219 41.871094 L 17.109375 42.289062 L 17.101562 42.289062 L 18.019531 42.699219 Z M 24.78125 26.144531 C 21.761719 25.472656 18 24.636719 18 20.335938 C 18 20.238281 17.992188 17.738281 19.816406 15.890625 C 20.863281 14.835938 22.269531 14.222656 24 14.054688 L 24 11 L 26 11 L 26 14.070312 C 29.867188 14.589844 30.976562 18.074219 31 19.988281 L 29 20.011719 C 28.992188 19.605469 28.804688 16 25 16 C 22.90625 16 21.4375 16.703125 20.636719 18.09375 C 20.007812 19.179688 20 20.316406 20 20.328125 C 20 22.902344 21.980469 23.472656 25.21875 24.191406 C 28.238281 24.863281 32 25.699219 32 30 C 32 34.152344 28.496094 35.628906 26 35.9375 L 26 39 L 24 39 L 24 35.953125 C 19.285156 35.511719 18 31.945312 18 30 L 19 30 L 20 29.992188 C 20.003906 30.402344 20.191406 34 25 34 C 25.203125 34 30 33.929688 30 30 C 30 27.433594 28.019531 26.859375 24.78125 26.144531 Z M 21.21875 45.679688 C 20.238281 45.460938 21.21875 45.679688 20.238281 45.460938 L 19.269531 45.230469 L 19.71875 43.28125 L 21.671875 43.742188 Z M 25.402344 45.980469 L 25.398438 46 C 24.398438 45.972656 25.398438 46.019531 24.398438 45.988281 L 23.398438 45.960938 L 23.460938 43.960938 L 25 44.007812 L 25 44 C 35.476562 44 44 35.476562 44 25 C 44 14.523438 35.476562 6 25 6 C 19.242188 6 13.871094 8.589844 10.277344 13 L 16 13 C 16.554688 13 17 13.449219 17 14 C 17 14.550781 16.554688 15 16 15 L 7 15 L 7 6 C 7 5.449219 7.445312 5 8 5 C 8.554688 5 9 5.449219 9 6 L 9 11.398438 C 12.96875 6.726562 18.78125 4 25 4 C 36.578125 4 46 13.421875 46 25 C 46 36.445312 36.792969 45.761719 25.402344 45.980469 Z M 25.402344 45.980469 "/>
</g>
</svg>
