<?xml version="1.0"?><svg fill="#000000" xmlns="http://www.w3.org/2000/svg"  viewBox="0 0 50 50" width="50px" height="50px">    <path d="M 25 2 C 12.317 2 2 12.318 2 25 C 2 37.682 12.317 48 25 48 C 37.683 48 48 37.682 48 25 C 48 12.318 37.683 2 25 2 z M 25 7 C 34.925 7 43 15.075 43 25 C 43 31.794 37.29 36 32 36 C 29.848 36 28.706906 34.989578 28.128906 34.142578 C 27.846906 33.728578 27.643906 33.268063 27.503906 32.789062 C 26.190906 34.483062 24.233062 36 20.914062 36 C 16.843062 36 14 32.905563 14 28.476562 C 14 19.639563 20.685109 14 25.287109 14 C 28.666109 14 30.991141 15.219281 32.244141 17.613281 L 33.076172 15.615234 C 33.289172 15.106234 33.877766 14.864172 34.384766 15.076172 C 34.894766 15.288172 35.136828 15.874766 34.923828 16.384766 L 29.529297 29.330078 C 29.148297 30.414078 29.10525 32.023625 29.78125 33.015625 C 30.23325 33.678625 30.959 34 32 34 C 36.328 34 41 30.559 41 25 C 41 16.178 33.822 9 25 9 C 16.178 9 9 16.178 9 25 C 9 33.822 16.178 41 25 41 C 28.005 41 30.935703 40.161172 33.470703 38.576172 C 33.939703 38.283172 34.554656 38.427531 34.847656 38.894531 C 35.140656 39.362531 34.99825 39.980438 34.53125 40.273438 C 31.67625 42.057438 28.381 43 25 43 C 15.075 43 7 34.925 7 25 C 7 15.075 15.075 7 25 7 z M 25.287109 16 C 22.135109 16 16 20.403562 16 28.476562 C 16 31.225562 17.520062 34 20.914062 34 C 24.766063 34 26.149094 31.470281 27.371094 29.238281 C 27.386094 29.210281 31.095703 20.369141 31.095703 20.369141 C 30.479703 17.357141 28.684109 16 25.287109 16 z"/></svg>