<svg fill="#000000" xmlns="http://www.w3.org/2000/svg"  viewBox="0 0 48 48" width="48px" height="48px"><path d="M 7.5 10 C 4.467 10 2 12.467 2 15.5 L 2 26.5 C 2 29.533 4.467 32 7.5 32 L 11.050781 32 C 11.024781 31.669 11 31.338 11 31 C 11 30.318 11.068922 29.654 11.169922 29 L 7.5 29 C 6.122 29 5 27.878 5 26.5 L 5 15.5 C 5 14.122 6.122 13 7.5 13 L 40.5 13 C 41.878 13 43 14.122 43 15.5 L 43 26.5 C 43 27.878 41.878 29 40.5 29 L 36.830078 29 C 36.931078 29.654 37 30.318 37 31 C 37 31.338 36.975219 31.669 36.949219 32 L 40.5 32 C 43.533 32 46 29.533 46 26.5 L 46 15.5 C 46 12.467 43.533 10 40.5 10 L 7.5 10 z M 24 20 C 17.925 20 13 24.925 13 31 C 13 37.075 17.925 42 24 42 C 30.075 42 35 37.075 35 31 C 35 24.925 30.075 20 24 20 z M 24 23 C 24.552 23 25 23.448 25 24 L 25 30 L 31 30 C 31.552 30 32 30.448 32 31 C 32 31.552 31.552 32 31 32 L 25 32 L 25 38 C 25 38.552 24.552 39 24 39 C 23.448 39 23 38.552 23 38 L 23 32 L 17 32 C 16.448 32 16 31.552 16 31 C 16 30.448 16.448 30 17 30 L 23 30 L 23 24 C 23 23.448 23.448 23 24 23 z"/></svg>