<svg fill="#000000" xmlns="http://www.w3.org/2000/svg"  viewBox="0 0 48 48" width="48px" height="48px"><path d="M 19 4.9980469 C 18.81 4.9980469 18.619453 5.034375 18.439453 5.109375 L 14.029297 6.8691406 L 10.109375 5.1308594 C 9.639375 4.9208594 9.1096875 4.9602344 8.6796875 5.2402344 C 8.2596875 5.5202344 8 5.99 8 6.5 L 8 37.5 C 8 40.53 10.47 43 13.5 43 L 24.759766 43 C 24.039766 42.09 23.45 41.08 23 40 L 13.5 40 C 12.12 40 11 38.88 11 37.5 L 11 8.8105469 L 13.390625 9.8691406 C 13.760625 10.029141 14.180547 10.040625 14.560547 9.890625 L 19 8.1191406 L 23.439453 9.890625 C 23.799453 10.040625 24.200547 10.040625 24.560547 9.890625 L 29 8.1191406 L 33.439453 9.890625 C 33.819453 10.040625 34.239375 10.039141 34.609375 9.8691406 L 37 8.8105469 L 37 22.150391 C 38.05 22.320391 39.05 22.6 40 23 L 40 6.5 C 40 5.99 39.740312 5.5202344 39.320312 5.2402344 C 38.890313 4.9702344 38.360625 4.9208594 37.890625 5.1308594 L 33.970703 6.8691406 L 29.560547 5.109375 C 29.200547 4.959375 28.799453 4.959375 28.439453 5.109375 L 24 6.8808594 L 19.560547 5.109375 C 19.380547 5.034375 19.19 4.9980469 19 4.9980469 z M 15.5 17 A 1.50015 1.50015 0 1 0 15.5 20 L 32.5 20 A 1.50015 1.50015 0 1 0 32.5 17 L 15.5 17 z M 35 24 C 28.925 24 24 28.925 24 35 C 24 41.075 28.925 46 35 46 C 41.075 46 46 41.075 46 35 C 46 28.925 41.075 24 35 24 z M 15.5 26 C 14.67 26 14 26.67 14 27.5 C 14 28.33 14.67 29 15.5 29 L 23.470703 29 C 23.980703 28.01 24.619375 27.099297 25.359375 26.279297 C 25.119375 26.099297 24.82 26 24.5 26 L 15.5 26 z M 35 27 C 35.552 27 36 27.448 36 28 L 36 34 L 42 34 C 42.552 34 43 34.448 43 35 C 43 35.552 42.552 36 42 36 L 36 36 L 36 42 C 36 42.552 35.552 43 35 43 C 34.448 43 34 42.552 34 42 L 34 36 L 28 36 C 27.448 36 27 35.552 27 35 C 27 34.448 27.448 34 28 34 L 34 34 L 34 28 C 34 27.448 34.448 27 35 27 z M 15.5 32 C 14.67 32 14 32.67 14 33.5 C 14 34.33 14.67 35 15.5 35 L 22 35 C 22 33.97 22.119609 32.96 22.349609 32 L 15.5 32 z"/></svg>