<svg fill="#000000" xmlns="http://www.w3.org/2000/svg"  viewBox="0 0 480 480" width="60px" height="60px"><path d="M 390 0 C 340.37 0 300 40.37 300 90 C 300 139.63 340.37 180 390 180 C 439.63 180 480 139.63 480 90 C 480 40.37 439.63 0 390 0 z M 390 41 C 394.418 41 398 44.582 398 49 C 398 53.418 394.418 57 390 57 C 389.553 57 389.10606 57.008391 388.66406 57.025391 C 384.26306 57.205391 380.52952 53.773609 380.35352 49.349609 C 380.17852 44.935609 383.61625 41.214063 388.03125 41.039062 C 388.68425 41.013062 389.34 41 390 41 z M 356.08008 58.998047 C 357.62103 59.001656 359.17858 59.450109 360.54883 60.380859 C 364.20483 62.861859 365.15583 67.837187 362.67383 71.492188 C 358.96283 76.960187 357 83.36 357 90 C 357 94.418 353.418 98 349 98 C 344.582 98 341 94.418 341 90 C 341 80.142 343.91655 70.634859 349.43555 62.505859 C 350.98617 60.220859 353.51183 58.992031 356.08008 58.998047 z M 128.98438 110.00391 C 56.988375 110.55691 -1.2424688 170.3255 0.01953125 242.3125 C 0.73553125 283.1635 20.3935 319.47794 50.5625 342.83594 C 53.1835 344.86494 56.998047 342.9683 56.998047 339.6543 L 56.998047 323.41797 C 56.998047 305.31697 69.583891 290.1065 86.462891 286.0625 C 89.206891 285.4055 90.333734 282.12289 88.677734 279.83789 C 82.595734 271.44389 79 261.136 79 250 L 79 208 C 79 185.909 96.909 168 119 168 L 191 168 C 195.418 168 199 171.582 199 176 L 199 205 C 199 215.613 192.6067 224.75797 183.4707 228.79297 C 181.9907 229.44697 181 230.86833 181 232.48633 L 181 250 C 181 261.136 177.40527 271.44389 171.32227 279.83789 C 169.66627 282.12289 170.79116 285.4045 173.53516 286.0625 C 190.41416 290.1065 203 305.31697 203 323.41797 L 203 339.65039 C 203 342.97239 206.82417 344.85822 209.45117 342.82422 C 240.18017 319.02622 260 281.784 260 240 C 260 167.982 201.12838 109.44991 128.98438 110.00391 z M 415.22656 114.54102 C 417.5304 114.62178 419.78262 115.69306 421.29688 117.66406 C 423.98687 121.16906 423.32627 126.19181 419.82227 128.88281 C 411.20227 135.50181 400.891 139 390 139 C 385.582 139 382 135.418 382 131 C 382 126.582 385.582 123 390 123 C 397.335 123 404.27813 120.64541 410.07812 116.19141 C 411.61113 115.01409 413.43469 114.4782 415.22656 114.54102 z M 291.15039 138.89453 C 289.88572 138.91991 288.61008 139.25555 287.43164 139.93555 L 259.20312 156.22266 C 255.68412 158.25266 253.99634 162.8278 256.52734 167.2168 C 258.68334 170.9558 263.46022 172.23708 267.19922 170.08008 L 295.42969 153.79688 C 299.01669 151.72788 300.57025 147.04995 298.15625 142.87695 C 296.65819 140.28577 293.93266 138.8387 291.15039 138.89453 z M 119 184 C 105.745 184 95 194.745 95 208 L 95 211 C 95 213.209 96.791 215 99 215 L 173 215 C 178.523 215 183 210.523 183 205 L 183 188 C 183 185.791 181.209 184 179 184 L 119 184 z M 99 231 C 96.791 231 95 232.791 95 235 L 95 250 C 95 296.084 165 296.71873 165 249.30273 L 165 235 C 165 232.791 163.209 231 161 231 L 99 231 z M 390 300 C 340.37 300 300 340.37 300 390 C 300 439.63 340.37 480 390 480 C 439.63 480 480 439.63 480 390 C 480 340.37 439.63 300 390 300 z M 95.417969 301 C 83.036969 301 73 311.03697 73 323.41797 L 73 351.72266 C 73 354.86466 74.832031 357.73981 77.707031 359.00781 C 110.91003 373.65781 149.02697 373.68481 182.29297 359.00781 C 185.16797 357.73981 187.00195 354.86466 187.00195 351.72266 L 187.00195 323.41797 L 187 323.41797 C 187 311.03697 176.96303 301 164.58203 301 L 95.417969 301 z M 263.64062 308.875 C 260.91132 308.75262 258.09713 310.08123 256.35156 313.0918 C 254.18256 316.8318 255.46008 321.61634 259.20508 323.77734 L 287.43164 340.06445 C 291.00864 342.12845 295.82333 341.14433 298.23633 336.98633 C 300.42733 333.21033 299.20969 328.38413 295.42969 326.20312 L 267.20117 309.91992 C 266.1043 309.28711 264.88122 308.93063 263.64062 308.875 z M 390 341 C 394.418 341 398 344.582 398 349 C 398 353.418 394.418 357 390 357 C 389.553 357 389.10606 357.00839 388.66406 357.02539 C 384.26306 357.20539 380.52952 353.77361 380.35352 349.34961 C 380.17852 344.93561 383.61625 341.21406 388.03125 341.03906 C 388.68425 341.01306 389.34 341 390 341 z M 356.08008 358.99805 C 357.62103 359.00153 359.17858 359.45011 360.54883 360.38086 C 364.20483 362.86186 365.15583 367.83719 362.67383 371.49219 C 358.96283 376.96019 357 383.36 357 390 C 357 394.418 353.418 398 349 398 C 344.582 398 341 394.418 341 390 C 341 380.142 343.91655 370.63486 349.43555 362.50586 C 350.98617 360.22148 353.51183 358.99224 356.08008 358.99805 z M 415.22656 414.54102 C 417.5304 414.62178 419.78262 415.69306 421.29688 417.66406 C 423.98687 421.16906 423.32627 426.19181 419.82227 428.88281 C 411.20227 435.50181 400.891 439 390 439 C 385.582 439 382 435.418 382 431 C 382 426.582 385.582 423 390 423 C 397.335 423 404.27813 420.64541 410.07812 416.19141 C 411.61113 415.01409 413.43469 414.4782 415.22656 414.54102 z"/></svg>