<?xml version="1.0"?><svg fill="#000000" xmlns="http://www.w3.org/2000/svg"  viewBox="0 0 24 24" width="24px" height="24px">    <path d="M 12 2 C 6.486 2 2 6.486 2 12 C 2 17.514 6.486 22 12 22 C 17.514 22 22 17.514 22 12 C 22 6.486 17.514 2 12 2 z M 12 4 C 16.411 4 20 7.589 20 12 C 20 16.411 16.411 20 12 20 C 7.589 20 4 16.411 4 12 C 4 7.589 7.589 4 12 4 z M 12 6 C 8.691 6 6 8.691 6 12 C 6 15.309 8.691 18 12 18 L 13 18 L 13 16 L 12 16 C 9.794 16 8 14.206 8 12 C 8 9.794 9.794 8 12 8 C 14.206 8 16 9.794 16 12 L 16 12.5 C 16 12.776 15.776 13 15.5 13 C 15.224 13 15 12.776 15 12.5 L 14.949219 12.5 C 14.976943 12.336452 15 12.171309 15 12 C 15 10.346 13.654 9 12 9 C 10.346 9 9 10.346 9 12 C 9 13.654 10.346 15 12 15 C 12.695481 15 13.328492 14.752311 13.837891 14.353516 C 14.280739 14.751016 14.859805 15 15.5 15 C 16.878 15 18 13.878 18 12.5 L 18 12 C 18 8.691 15.309 6 12 6 z M 12 11 C 12.551 11 13 11.449 13 12 C 13 12.551 12.551 13 12 13 C 11.449 13 11 12.551 11 12 C 11 11.449 11.449 11 12 11 z"/></svg>